<svg id="Capa_2" data-name="Capa 2" xmlns="http://www.w3.org/2000/svg" viewBox="0 0 489.06 185.04"><rect width="213.84" height="185.04" rx="2.83" style="fill:#009688"/><path d="M140.28,350.77l21.82,14.81-22.22,27.85,18.57,9.2-16.67,21.58-21.7-9-16.26,22.52-22.71-8.59L100.43,406,69.24,390.11l15.88-24.74,34,16.6Z" transform="translate(-62 -330.61)" style="fill:#1d1d1b"/><path d="M194.82,364.9a116,116,0,0,0,20,4.07,118.67,118.67,0,0,0,47.2-4.35c-.38,20.63-9.15,35.86-30.26,43.16-2.61.7-12.72,3.07-22.34-2.51S197,389.79,195.56,384.79A42.45,42.45,0,0,1,194.82,364.9Z" transform="translate(-62 -330.61)" style="fill:#1d1d1b"/><path d="M198.74,471.28c-3.05-4.89-18.58-1.73-29.55,3.28a84.69,84.69,0,0,0-13.27,7.69c-7.12,5.2-9.32,8.86-15.86,10.66-2.63.72-6.46,1.72-10.1-.31-3.88-2.16-5.07-6.4-5.37-7.61-3.39-13.8,9.16-29.73,11.34-32.37,6.53-7.92,13.34-12.16,21.78-17.41,6-3.77,12.46-7.7,21.93-10.52a81.37,81.37,0,0,1,22.93-3.19c8.94-.21,15.53-.28,23,3.17a37.31,37.31,0,0,1,9.21,6,25,25,0,0,1,6.62,14.83c.5,6.59-1.66,15.78-7.9,19.41-1.51.89-1.46.64-13.08,3.59-4.38,1.12-6.59,1.69-7.45,2.75-3.73,4.56,3.48,12.3-.1,17.45-2.09,3-7.13,4.07-10.15,2.46-3.48-1.86-3.92-7.11-4.22-10.67C198,474.54,199.94,473.22,198.74,471.28Z" transform="translate(-62 -330.61)" style="fill:#1d1d1b"/><path d="M186.07,430.45c1.67-2.78,7.12-3.13,18-3.72,12-.65,14.66.69,15.93,2.52,1.49,2.14,1.53,5.56,1.53,5.94a14.73,14.73,0,0,1-1.11,5.2c-2.65,6.2-10,8.79-11.17,9.19a17.7,17.7,0,0,1-12.79.18,17,17,0,0,1-7.41-5.67C186.75,441.06,183.56,434.63,186.07,430.45Z" transform="translate(-62 -330.61)" style="fill:#fff"/><path d="M286.11,390.83A2.87,2.87,0,0,1,289,388l43.77-.21a2.84,2.84,0,0,1,2.85,2.82l.09,11.85a2.77,2.77,0,0,1-2.82,2.79l-10.76-.16a2.73,2.73,0,0,0-2.78,2.79l.86,53.64a2.85,2.85,0,0,1-2.79,2.89l-12.74.24a2.77,2.77,0,0,1-2.83-2.78l.16-54.3a2.76,2.76,0,0,0-2.82-2.78L289,405a2.78,2.78,0,0,1-2.84-2.78Z" transform="translate(-62 -330.61)" style="fill:#fff"/><path d="M286.11,390.83A2.87,2.87,0,0,1,289,388l43.77-.21a2.84,2.84,0,0,1,2.85,2.82l.09,11.85a2.77,2.77,0,0,1-2.82,2.79l-10.76-.16a2.73,2.73,0,0,0-2.78,2.79l.86,53.64a2.85,2.85,0,0,1-2.79,2.89l-12.74.24a2.77,2.77,0,0,1-2.83-2.78l.16-54.3a2.76,2.76,0,0,0-2.82-2.78L289,405a2.78,2.78,0,0,1-2.84-2.78Z" transform="translate(-62 -330.61)" style="fill:none;stroke:#1d1d1b;stroke-miterlimit:10;stroke-width:3px"/><path d="M405.65,389a2.91,2.91,0,0,0-2.87,2.85l-.64,68a2.87,2.87,0,0,0,2.81,2.88l27.2.48a2.79,2.79,0,0,0,2.84-2.79v-8.63a2.85,2.85,0,0,0-2.84-2.84h-9.36a2.84,2.84,0,0,1-2.84-2.83V391.75a2.84,2.84,0,0,0-2.83-2.83Z" transform="translate(-62 -330.61)" style="fill:#fff"/><path d="M405.65,389a2.91,2.91,0,0,0-2.87,2.85l-.64,68a2.87,2.87,0,0,0,2.81,2.88l27.2.48a2.79,2.79,0,0,0,2.84-2.79v-8.63a2.85,2.85,0,0,0-2.84-2.84h-9.36a2.84,2.84,0,0,1-2.84-2.83V391.75a2.84,2.84,0,0,0-2.83-2.83Z" transform="translate(-62 -330.61)" style="fill:none;stroke:#1d1d1b;stroke-miterlimit:10;stroke-width:3px"/><path d="M444.44,388a2.84,2.84,0,0,0-2.83,2.84v69.94a2.92,2.92,0,0,0,2.83,2.9l40.39.95a2.76,2.76,0,0,0,2.83-2.77V451.34a2.83,2.83,0,0,0-2.83-2.83h-1.61a2.89,2.89,0,0,1-2.87-2.84l-.21-14.77a2.91,2.91,0,0,0-2.87-2.86l-17.82-.16a2.8,2.8,0,0,1-2.77-2.86l.41-18a3,3,0,0,1,2.9-2.86l25.47-.21a2.9,2.9,0,0,0,2.86-2.85l.1-10.26a2.8,2.8,0,0,0-2.8-2.84Z" transform="translate(-62 -330.61)" style="fill:#fff"/><path d="M444.44,388a2.84,2.84,0,0,0-2.83,2.84v69.94a2.92,2.92,0,0,0,2.83,2.9l40.39.95a2.76,2.76,0,0,0,2.83-2.77V451.34a2.83,2.83,0,0,0-2.83-2.83h-1.61a2.89,2.89,0,0,1-2.87-2.84l-.21-14.77a2.91,2.91,0,0,0-2.87-2.86l-17.82-.16a2.8,2.8,0,0,1-2.77-2.86l.41-18a3,3,0,0,1,2.9-2.86l25.47-.21a2.9,2.9,0,0,0,2.86-2.85l.1-10.26a2.8,2.8,0,0,0-2.8-2.84Z" transform="translate(-62 -330.61)" style="fill:none;stroke:#1d1d1b;stroke-miterlimit:10;stroke-width:3px"/><path d="M497,391.91a3.54,3.54,0,0,1,2.79-3.34,77.51,77.51,0,0,1,19.77-.7c6.86.81,11.52,1.36,15.89,4.83,6.93,5.51,9.55,15.56,7.8,24.16a25.72,25.72,0,0,1-12.76,17.6,2.22,2.22,0,0,0-.86,3.48l18.12,24a11.7,11.7,0,0,1,1.82,3.07c.06.45-1.16.91-2.72,1l-13.11,1a5.47,5.47,0,0,1-4.43-2.12l-15.07-21.86c-.88-1.28-1.62-1.05-1.64.51l-.2,19a2.91,2.91,0,0,1-2.87,2.85l-11.61,0a2.81,2.81,0,0,1-2.83-2.82l0-38.14a2.84,2.84,0,0,1,2.84-2.83l14.92,0a2.71,2.71,0,0,0,2.84-2.56,2.75,2.75,0,0,1,2.83-2.6l6.85-.06c1.56,0,3.06-.79,3.32-1.71s-.32-3.35-1.88-3.34l-5.83.05a2.58,2.58,0,0,1-2.7-2.66c.08-1.47-1-5.35-2.55-5.35H499.83a2.85,2.85,0,0,1-2.84-2.84Z" transform="translate(-62 -330.61)" style="fill:#fff"/><path d="M497,391.91a3.54,3.54,0,0,1,2.79-3.34,77.51,77.51,0,0,1,19.77-.7c6.86.81,11.52,1.36,15.89,4.83,6.93,5.51,9.55,15.56,7.8,24.16a25.72,25.72,0,0,1-12.76,17.6,2.22,2.22,0,0,0-.86,3.48l18.12,24a11.7,11.7,0,0,1,1.82,3.07c.06.45-1.16.91-2.72,1l-13.11,1a5.47,5.47,0,0,1-4.43-2.12l-15.07-21.86c-.88-1.28-1.62-1.05-1.64.51l-.2,19a2.91,2.91,0,0,1-2.87,2.85l-11.61,0a2.81,2.81,0,0,1-2.83-2.82l0-38.14a2.84,2.84,0,0,1,2.84-2.83l14.92,0a2.71,2.71,0,0,0,2.84-2.56,2.75,2.75,0,0,1,2.83-2.6l6.85-.06c1.56,0,3.06-.79,3.32-1.71s-.32-3.35-1.88-3.34l-5.83.05a2.58,2.58,0,0,1-2.7-2.66c.08-1.47-1-5.35-2.55-5.35H499.83a2.85,2.85,0,0,1-2.84-2.84Z" transform="translate(-62 -330.61)" style="fill:none;stroke:#1d1d1b;stroke-miterlimit:10;stroke-width:3px"/><circle cx="305.89" cy="82.9" r="21.08" style="fill:none;stroke:#009688;stroke-miterlimit:10;stroke-width:11px"/><circle cx="305.9" cy="82.81" r="27.57" style="fill:none;stroke:#1d1d1b;stroke-miterlimit:10;stroke-width:3px"/><circle cx="305.89" cy="82.92" r="14.13" style="fill:none;stroke:#1d1d1b;stroke-miterlimit:10;stroke-width:3px"/><rect x="288.37" y="118.38" width="35.04" height="13.4" rx="3.1" style="fill:#009688;stroke:#1d1d1b;stroke-miterlimit:10;stroke-width:3px"/></svg>